<svg xmlns="http://www.w3.org/2000/svg" width="149" height="83" viewBox="0 0 149 83">
    <defs>
        <linearGradient id="0wot4hab9a" x1="50%" x2="50%" y1="100%" y2="0%">
            <stop offset="0%" stop-color="#D4D8E1"/>
            <stop offset="100%" stop-color="#F3F4F5"/>
        </linearGradient>
    </defs>
    <g fill="none" fill-rule="evenodd">
        <g>
            <g>
                <g>
                    <g>
                        <g>
                            <g>
                                <path fill="url(#0wot4hab9a)" d="M22.75 8.313c0 3.062-2.625 9.624-8.75 9.624s-8.75-6.562-8.75-9.625c0-3.062 7-7.874 8.75-7.874s8.75 4.812 8.75 7.875z" transform="translate(-535 -780) translate(535 665) translate(0 115) translate(0 .26) translate(.06)"/>
                                <path fill="#C7CDD8" d="M22.75 8.313c0 3.062-2.625 9.624-8.75 9.624s-8.75-6.562-8.75-9.625c0-.164.019-.329.057-.49.38 3.277 3.071 8.803 8.693 8.803s8.313-5.526 8.693-8.803c.038.161.057.326.057.49z" transform="translate(-535 -780) translate(535 665) translate(0 115) translate(0 .26) translate(.06)"/>
                                <path fill="#8288A1" d="M17.5 4.813h-.048c-.53-.062-1.041-.233-1.5-.504-.353-.245-.668-.54-.937-.875-.346-.424-.674-.809-1.015-.809-.341 0-.67.376-1.015.779-.27.334-.584.629-.936.875-.458.28-.969.463-1.5.534-.242.026-.46-.148-.486-.39-.027-.241.147-.459.389-.486.395-.051.776-.177 1.124-.371.28-.21.532-.456.748-.731.438-.503.937-1.085 1.676-1.085.722 0 1.22.573 1.658 1.08.217.276.468.521.748.731.348.194.73.32 1.125.372.242.009.432.212.424.455-.008.243-.212.433-.455.425z" transform="translate(-535 -780) translate(535 665) translate(0 115) translate(0 .26) translate(.06)"/>
                                <path fill="#C7CDD8" d="M24.5 17.063c-1.453 0-4.187-3.422-4.72-4.109-.108-.122-.138-.294-.08-.446.06-.151.197-.258.359-.277.162-.018.32.055.412.19 1.404 1.81 3.35 3.767 4.029 3.767.875 0 2.625-3.444 2.625-7.438 0-5.08-.779-7.875-2.188-7.875-1.408 0-3.408 3.5-4.375 5.718-.061.144-.195.244-.35.262-.156.019-.31-.047-.403-.173-.094-.125-.113-.29-.052-.435C20.052 5.61 22.532 0 24.938 0 26.998 0 28 2.861 28 8.75c0 4.038-1.798 8.313-3.5 8.313zM3.5 17.063c-1.702 0-3.5-4.275-3.5-8.313C0 2.861 1.002 0 3.063 0c2.406 0 4.886 5.609 5.162 6.247.095.223-.007.48-.23.576-.222.095-.48-.008-.575-.23C6.47 4.375 4.445.875 3.063.875 1.68.875.874 3.671.874 8.75c0 3.994 1.75 7.438 2.625 7.438.678 0 2.625-1.956 4.03-3.767.152-.174.413-.2.596-.058.183.14.224.4.095.591-.534.687-3.269 4.108-4.721 4.108z" transform="translate(-535 -780) translate(535 665) translate(0 115) translate(0 .26) translate(.06)"/>
                                <path fill="#C7CDD8" d="M14 11.375c-2.14.038-4.268-.312-6.282-1.033-.146-.057-.25-.188-.272-.343-.023-.155.04-.31.162-.407.123-.097.288-.121.433-.063 1.912.68 3.93 1.01 5.959.971 2.029.038 4.047-.29 5.959-.971.224-.09.48.02.569.245.089.224-.02.48-.245.569-2.015.72-4.144 1.07-6.283 1.032zM14 14c-1.047.002-2.092-.073-3.128-.223-.156-.024-.288-.129-.346-.276-.058-.147-.033-.314.065-.437.099-.124.256-.186.412-.162 1.988.284 4.006.284 5.994 0 .156-.024.313.038.412.162.098.123.123.29.065.437-.058.147-.19.252-.346.276-1.036.15-2.081.225-3.128.223zM14 8.75c-1.047.002-2.092-.073-3.128-.223-.242-.036-.408-.262-.372-.503.036-.242.262-.408.503-.372 1.988.284 4.006.284 5.994 0 .241-.036.467.13.503.372.036.241-.13.467-.372.503-1.036.15-2.081.225-3.128.223z" transform="translate(-535 -780) translate(535 665) translate(0 115) translate(0 .26) translate(.06)"/>
                            </g>
                            <g>
                                <path fill="url(#0wot4hab9a)" d="M22.75 8.313c0 3.062-2.625 9.624-8.75 9.624s-8.75-6.562-8.75-9.625c0-3.062 7-7.874 8.75-7.874s8.75 4.812 8.75 7.875z" transform="translate(-535 -780) translate(535 665) translate(0 115) translate(0 .26) translate(40.06)"/>
                                <path fill="#C7CDD8" d="M22.75 8.313c0 3.062-2.625 9.624-8.75 9.624s-8.75-6.562-8.75-9.625c0-.164.019-.329.057-.49.38 3.277 3.071 8.803 8.693 8.803s8.313-5.526 8.693-8.803c.038.161.057.326.057.49z" transform="translate(-535 -780) translate(535 665) translate(0 115) translate(0 .26) translate(40.06)"/>
                                <path fill="#8288A1" d="M17.5 4.813h-.048c-.53-.062-1.041-.233-1.5-.504-.353-.245-.668-.54-.937-.875-.346-.424-.674-.809-1.015-.809-.341 0-.67.376-1.015.779-.27.334-.584.629-.936.875-.458.28-.969.463-1.5.534-.242.026-.46-.148-.486-.39-.027-.241.147-.459.389-.486.395-.051.776-.177 1.124-.371.28-.21.532-.456.748-.731.438-.503.937-1.085 1.676-1.085.722 0 1.22.573 1.658 1.08.217.276.468.521.748.731.348.194.73.32 1.125.372.242.009.432.212.424.455-.008.243-.212.433-.455.425z" transform="translate(-535 -780) translate(535 665) translate(0 115) translate(0 .26) translate(40.06)"/>
                                <path fill="#C7CDD8" d="M24.5 17.063c-1.453 0-4.187-3.422-4.72-4.109-.108-.122-.138-.294-.08-.446.06-.151.197-.258.359-.277.162-.018.32.055.412.19 1.404 1.81 3.35 3.767 4.029 3.767.875 0 2.625-3.444 2.625-7.438 0-5.08-.779-7.875-2.188-7.875-1.408 0-3.408 3.5-4.375 5.718-.061.144-.195.244-.35.262-.156.019-.31-.047-.403-.173-.094-.125-.113-.29-.052-.435C20.052 5.61 22.532 0 24.938 0 26.998 0 28 2.861 28 8.75c0 4.038-1.798 8.313-3.5 8.313zM3.5 17.063c-1.702 0-3.5-4.275-3.5-8.313C0 2.861 1.002 0 3.063 0c2.406 0 4.886 5.609 5.162 6.247.095.223-.007.48-.23.576-.222.095-.48-.008-.575-.23C6.47 4.375 4.445.875 3.063.875 1.68.875.874 3.671.874 8.75c0 3.994 1.75 7.438 2.625 7.438.678 0 2.625-1.956 4.03-3.767.152-.174.413-.2.596-.058.183.14.224.4.095.591-.534.687-3.269 4.108-4.721 4.108z" transform="translate(-535 -780) translate(535 665) translate(0 115) translate(0 .26) translate(40.06)"/>
                                <path fill="#C7CDD8" d="M14 11.375c-2.14.038-4.268-.312-6.282-1.033-.146-.057-.25-.188-.272-.343-.023-.155.04-.31.162-.407.123-.097.288-.121.433-.063 1.912.68 3.93 1.01 5.959.971 2.029.038 4.047-.29 5.959-.971.224-.09.48.02.569.245.089.224-.02.48-.245.569-2.015.72-4.144 1.07-6.283 1.032zM14 14c-1.047.002-2.092-.073-3.128-.223-.156-.024-.288-.129-.346-.276-.058-.147-.033-.314.065-.437.099-.124.256-.186.412-.162 1.988.284 4.006.284 5.994 0 .156-.024.313.038.412.162.098.123.123.29.065.437-.058.147-.19.252-.346.276-1.036.15-2.081.225-3.128.223zM14 8.75c-1.047.002-2.092-.073-3.128-.223-.242-.036-.408-.262-.372-.503.036-.242.262-.408.503-.372 1.988.284 4.006.284 5.994 0 .241-.036.467.13.503.372.036.241-.13.467-.372.503-1.036.15-2.081.225-3.128.223z" transform="translate(-535 -780) translate(535 665) translate(0 115) translate(0 .26) translate(40.06)"/>
                            </g>
                            <g>
                                <path fill="url(#0wot4hab9a)" d="M22.75 8.313c0 3.062-2.625 9.624-8.75 9.624s-8.75-6.562-8.75-9.625c0-3.062 7-7.874 8.75-7.874s8.75 4.812 8.75 7.875z" transform="translate(-535 -780) translate(535 665) translate(0 115) translate(0 .26) translate(80.06)"/>
                                <path fill="#C7CDD8" d="M22.75 8.313c0 3.062-2.625 9.624-8.75 9.624s-8.75-6.562-8.75-9.625c0-.164.019-.329.057-.49.38 3.277 3.071 8.803 8.693 8.803s8.313-5.526 8.693-8.803c.038.161.057.326.057.49z" transform="translate(-535 -780) translate(535 665) translate(0 115) translate(0 .26) translate(80.06)"/>
                                <path fill="#8288A1" d="M17.5 4.813h-.048c-.53-.062-1.041-.233-1.5-.504-.353-.245-.668-.54-.937-.875-.346-.424-.674-.809-1.015-.809-.341 0-.67.376-1.015.779-.27.334-.584.629-.936.875-.458.28-.969.463-1.5.534-.242.026-.46-.148-.486-.39-.027-.241.147-.459.389-.486.395-.051.776-.177 1.124-.371.28-.21.532-.456.748-.731.438-.503.937-1.085 1.676-1.085.722 0 1.22.573 1.658 1.08.217.276.468.521.748.731.348.194.73.32 1.125.372.242.009.432.212.424.455-.008.243-.212.433-.455.425z" transform="translate(-535 -780) translate(535 665) translate(0 115) translate(0 .26) translate(80.06)"/>
                                <path fill="#C7CDD8" d="M24.5 17.063c-1.453 0-4.187-3.422-4.72-4.109-.108-.122-.138-.294-.08-.446.06-.151.197-.258.359-.277.162-.018.32.055.412.19 1.404 1.81 3.35 3.767 4.029 3.767.875 0 2.625-3.444 2.625-7.438 0-5.08-.779-7.875-2.188-7.875-1.408 0-3.408 3.5-4.375 5.718-.061.144-.195.244-.35.262-.156.019-.31-.047-.403-.173-.094-.125-.113-.29-.052-.435C20.052 5.61 22.532 0 24.938 0 26.998 0 28 2.861 28 8.75c0 4.038-1.798 8.313-3.5 8.313zM3.5 17.063c-1.702 0-3.5-4.275-3.5-8.313C0 2.861 1.002 0 3.063 0c2.406 0 4.886 5.609 5.162 6.247.095.223-.007.48-.23.576-.222.095-.48-.008-.575-.23C6.47 4.375 4.445.875 3.063.875 1.68.875.874 3.671.874 8.75c0 3.994 1.75 7.438 2.625 7.438.678 0 2.625-1.956 4.03-3.767.152-.174.413-.2.596-.058.183.14.224.4.095.591-.534.687-3.269 4.108-4.721 4.108z" transform="translate(-535 -780) translate(535 665) translate(0 115) translate(0 .26) translate(80.06)"/>
                                <path fill="#C7CDD8" d="M14 11.375c-2.14.038-4.268-.312-6.282-1.033-.146-.057-.25-.188-.272-.343-.023-.155.04-.31.162-.407.123-.097.288-.121.433-.063 1.912.68 3.93 1.01 5.959.971 2.029.038 4.047-.29 5.959-.971.224-.09.48.02.569.245.089.224-.02.48-.245.569-2.015.72-4.144 1.07-6.283 1.032zM14 14c-1.047.002-2.092-.073-3.128-.223-.156-.024-.288-.129-.346-.276-.058-.147-.033-.314.065-.437.099-.124.256-.186.412-.162 1.988.284 4.006.284 5.994 0 .156-.024.313.038.412.162.098.123.123.29.065.437-.058.147-.19.252-.346.276-1.036.15-2.081.225-3.128.223zM14 8.75c-1.047.002-2.092-.073-3.128-.223-.242-.036-.408-.262-.372-.503.036-.242.262-.408.503-.372 1.988.284 4.006.284 5.994 0 .241-.036.467.13.503.372.036.241-.13.467-.372.503-1.036.15-2.081.225-3.128.223z" transform="translate(-535 -780) translate(535 665) translate(0 115) translate(0 .26) translate(80.06)"/>
                            </g>
                            <g>
                                <path fill="url(#0wot4hab9a)" d="M22.75 8.313c0 3.062-2.625 9.624-8.75 9.624s-8.75-6.562-8.75-9.625c0-3.062 7-7.874 8.75-7.874s8.75 4.812 8.75 7.875z" transform="translate(-535 -780) translate(535 665) translate(0 115) translate(0 .26) translate(120.06)"/>
                                <path fill="#C7CDD8" d="M22.75 8.313c0 3.062-2.625 9.624-8.75 9.624s-8.75-6.562-8.75-9.625c0-.164.019-.329.057-.49.38 3.277 3.071 8.803 8.693 8.803s8.313-5.526 8.693-8.803c.038.161.057.326.057.49z" transform="translate(-535 -780) translate(535 665) translate(0 115) translate(0 .26) translate(120.06)"/>
                                <path fill="#8288A1" d="M17.5 4.813h-.048c-.53-.062-1.041-.233-1.5-.504-.353-.245-.668-.54-.937-.875-.346-.424-.674-.809-1.015-.809-.341 0-.67.376-1.015.779-.27.334-.584.629-.936.875-.458.28-.969.463-1.5.534-.242.026-.46-.148-.486-.39-.027-.241.147-.459.389-.486.395-.051.776-.177 1.124-.371.28-.21.532-.456.748-.731.438-.503.937-1.085 1.676-1.085.722 0 1.22.573 1.658 1.08.217.276.468.521.748.731.348.194.73.32 1.125.372.242.009.432.212.424.455-.008.243-.212.433-.455.425z" transform="translate(-535 -780) translate(535 665) translate(0 115) translate(0 .26) translate(120.06)"/>
                                <path fill="#C7CDD8" d="M24.5 17.063c-1.453 0-4.187-3.422-4.72-4.109-.108-.122-.138-.294-.08-.446.06-.151.197-.258.359-.277.162-.018.32.055.412.19 1.404 1.81 3.35 3.767 4.029 3.767.875 0 2.625-3.444 2.625-7.438 0-5.08-.779-7.875-2.188-7.875-1.408 0-3.408 3.5-4.375 5.718-.061.144-.195.244-.35.262-.156.019-.31-.047-.403-.173-.094-.125-.113-.29-.052-.435C20.052 5.61 22.532 0 24.938 0 26.998 0 28 2.861 28 8.75c0 4.038-1.798 8.313-3.5 8.313zM3.5 17.063c-1.702 0-3.5-4.275-3.5-8.313C0 2.861 1.002 0 3.063 0c2.406 0 4.886 5.609 5.162 6.247.095.223-.007.48-.23.576-.222.095-.48-.008-.575-.23C6.47 4.375 4.445.875 3.063.875 1.68.875.874 3.671.874 8.75c0 3.994 1.75 7.438 2.625 7.438.678 0 2.625-1.956 4.03-3.767.152-.174.413-.2.596-.058.183.14.224.4.095.591-.534.687-3.269 4.108-4.721 4.108z" transform="translate(-535 -780) translate(535 665) translate(0 115) translate(0 .26) translate(120.06)"/>
                                <path fill="#C7CDD8" d="M14 11.375c-2.14.038-4.268-.312-6.282-1.033-.146-.057-.25-.188-.272-.343-.023-.155.04-.31.162-.407.123-.097.288-.121.433-.063 1.912.68 3.93 1.01 5.959.971 2.029.038 4.047-.29 5.959-.971.224-.09.48.02.569.245.089.224-.02.48-.245.569-2.015.72-4.144 1.07-6.283 1.032zM14 14c-1.047.002-2.092-.073-3.128-.223-.156-.024-.288-.129-.346-.276-.058-.147-.033-.314.065-.437.099-.124.256-.186.412-.162 1.988.284 4.006.284 5.994 0 .156-.024.313.038.412.162.098.123.123.29.065.437-.058.147-.19.252-.346.276-1.036.15-2.081.225-3.128.223zM14 8.75c-1.047.002-2.092-.073-3.128-.223-.242-.036-.408-.262-.372-.503.036-.242.262-.408.503-.372 1.988.284 4.006.284 5.994 0 .241-.036.467.13.503.372.036.241-.13.467-.372.503-1.036.15-2.081.225-3.128.223z" transform="translate(-535 -780) translate(535 665) translate(0 115) translate(0 .26) translate(120.06)"/>
                            </g>
                        </g>
                        <g>
                            <g>
                                <path fill="url(#0wot4hab9a)" d="M22.75 8.313c0 3.062-2.625 9.624-8.75 9.624s-8.75-6.562-8.75-9.625c0-3.062 7-7.874 8.75-7.874s8.75 4.812 8.75 7.875z" transform="translate(-535 -780) translate(535 665) translate(0 115) translate(0 .26) translate(0 32) translate(.06)"/>
                                <path fill="#C7CDD8" d="M22.75 8.313c0 3.062-2.625 9.624-8.75 9.624s-8.75-6.562-8.75-9.625c0-.164.019-.329.057-.49.38 3.277 3.071 8.803 8.693 8.803s8.313-5.526 8.693-8.803c.038.161.057.326.057.49z" transform="translate(-535 -780) translate(535 665) translate(0 115) translate(0 .26) translate(0 32) translate(.06)"/>
                                <path fill="#8288A1" d="M17.5 4.813h-.048c-.53-.062-1.041-.233-1.5-.504-.353-.245-.668-.54-.937-.875-.346-.424-.674-.809-1.015-.809-.341 0-.67.376-1.015.779-.27.334-.584.629-.936.875-.458.28-.969.463-1.5.534-.242.026-.46-.148-.486-.39-.027-.241.147-.459.389-.486.395-.051.776-.177 1.124-.371.28-.21.532-.456.748-.731.438-.503.937-1.085 1.676-1.085.722 0 1.22.573 1.658 1.08.217.276.468.521.748.731.348.194.73.32 1.125.372.242.009.432.212.424.455-.008.243-.212.433-.455.425z" transform="translate(-535 -780) translate(535 665) translate(0 115) translate(0 .26) translate(0 32) translate(.06)"/>
                                <path fill="#C7CDD8" d="M24.5 17.063c-1.453 0-4.187-3.422-4.72-4.109-.108-.122-.138-.294-.08-.446.06-.151.197-.258.359-.277.162-.018.32.055.412.19 1.404 1.81 3.35 3.767 4.029 3.767.875 0 2.625-3.444 2.625-7.438 0-5.08-.779-7.875-2.188-7.875-1.408 0-3.408 3.5-4.375 5.718-.061.144-.195.244-.35.262-.156.019-.31-.047-.403-.173-.094-.125-.113-.29-.052-.435C20.052 5.61 22.532 0 24.938 0 26.998 0 28 2.861 28 8.75c0 4.038-1.798 8.313-3.5 8.313zM3.5 17.063c-1.702 0-3.5-4.275-3.5-8.313C0 2.861 1.002 0 3.063 0c2.406 0 4.886 5.609 5.162 6.247.095.223-.007.48-.23.576-.222.095-.48-.008-.575-.23C6.47 4.375 4.445.875 3.063.875 1.68.875.874 3.671.874 8.75c0 3.994 1.75 7.438 2.625 7.438.678 0 2.625-1.956 4.03-3.767.152-.174.413-.2.596-.058.183.14.224.4.095.591-.534.687-3.269 4.108-4.721 4.108z" transform="translate(-535 -780) translate(535 665) translate(0 115) translate(0 .26) translate(0 32) translate(.06)"/>
                                <path fill="#C7CDD8" d="M14 11.375c-2.14.038-4.268-.312-6.282-1.033-.146-.057-.25-.188-.272-.343-.023-.155.04-.31.162-.407.123-.097.288-.121.433-.063 1.912.68 3.93 1.01 5.959.971 2.029.038 4.047-.29 5.959-.971.224-.09.48.02.569.245.089.224-.02.48-.245.569-2.015.72-4.144 1.07-6.283 1.032zM14 14c-1.047.002-2.092-.073-3.128-.223-.156-.024-.288-.129-.346-.276-.058-.147-.033-.314.065-.437.099-.124.256-.186.412-.162 1.988.284 4.006.284 5.994 0 .156-.024.313.038.412.162.098.123.123.29.065.437-.058.147-.19.252-.346.276-1.036.15-2.081.225-3.128.223zM14 8.75c-1.047.002-2.092-.073-3.128-.223-.242-.036-.408-.262-.372-.503.036-.242.262-.408.503-.372 1.988.284 4.006.284 5.994 0 .241-.036.467.13.503.372.036.241-.13.467-.372.503-1.036.15-2.081.225-3.128.223z" transform="translate(-535 -780) translate(535 665) translate(0 115) translate(0 .26) translate(0 32) translate(.06)"/>
                            </g>
                            <g>
                                <path fill="url(#0wot4hab9a)" d="M22.75 8.313c0 3.062-2.625 9.624-8.75 9.624s-8.75-6.562-8.75-9.625c0-3.062 7-7.874 8.75-7.874s8.75 4.812 8.75 7.875z" transform="translate(-535 -780) translate(535 665) translate(0 115) translate(0 .26) translate(0 32) translate(40.06)"/>
                                <path fill="#C7CDD8" d="M22.75 8.313c0 3.062-2.625 9.624-8.75 9.624s-8.75-6.562-8.75-9.625c0-.164.019-.329.057-.49.38 3.277 3.071 8.803 8.693 8.803s8.313-5.526 8.693-8.803c.038.161.057.326.057.49z" transform="translate(-535 -780) translate(535 665) translate(0 115) translate(0 .26) translate(0 32) translate(40.06)"/>
                                <path fill="#8288A1" d="M17.5 4.813h-.048c-.53-.062-1.041-.233-1.5-.504-.353-.245-.668-.54-.937-.875-.346-.424-.674-.809-1.015-.809-.341 0-.67.376-1.015.779-.27.334-.584.629-.936.875-.458.28-.969.463-1.5.534-.242.026-.46-.148-.486-.39-.027-.241.147-.459.389-.486.395-.051.776-.177 1.124-.371.28-.21.532-.456.748-.731.438-.503.937-1.085 1.676-1.085.722 0 1.22.573 1.658 1.08.217.276.468.521.748.731.348.194.73.32 1.125.372.242.009.432.212.424.455-.008.243-.212.433-.455.425z" transform="translate(-535 -780) translate(535 665) translate(0 115) translate(0 .26) translate(0 32) translate(40.06)"/>
                                <path fill="#C7CDD8" d="M24.5 17.063c-1.453 0-4.187-3.422-4.72-4.109-.108-.122-.138-.294-.08-.446.06-.151.197-.258.359-.277.162-.018.32.055.412.19 1.404 1.81 3.35 3.767 4.029 3.767.875 0 2.625-3.444 2.625-7.438 0-5.08-.779-7.875-2.188-7.875-1.408 0-3.408 3.5-4.375 5.718-.061.144-.195.244-.35.262-.156.019-.31-.047-.403-.173-.094-.125-.113-.29-.052-.435C20.052 5.61 22.532 0 24.938 0 26.998 0 28 2.861 28 8.75c0 4.038-1.798 8.313-3.5 8.313zM3.5 17.063c-1.702 0-3.5-4.275-3.5-8.313C0 2.861 1.002 0 3.063 0c2.406 0 4.886 5.609 5.162 6.247.095.223-.007.48-.23.576-.222.095-.48-.008-.575-.23C6.47 4.375 4.445.875 3.063.875 1.68.875.874 3.671.874 8.75c0 3.994 1.75 7.438 2.625 7.438.678 0 2.625-1.956 4.03-3.767.152-.174.413-.2.596-.058.183.14.224.4.095.591-.534.687-3.269 4.108-4.721 4.108z" transform="translate(-535 -780) translate(535 665) translate(0 115) translate(0 .26) translate(0 32) translate(40.06)"/>
                                <path fill="#C7CDD8" d="M14 11.375c-2.14.038-4.268-.312-6.282-1.033-.146-.057-.25-.188-.272-.343-.023-.155.04-.31.162-.407.123-.097.288-.121.433-.063 1.912.68 3.93 1.01 5.959.971 2.029.038 4.047-.29 5.959-.971.224-.09.48.02.569.245.089.224-.02.48-.245.569-2.015.72-4.144 1.07-6.283 1.032zM14 14c-1.047.002-2.092-.073-3.128-.223-.156-.024-.288-.129-.346-.276-.058-.147-.033-.314.065-.437.099-.124.256-.186.412-.162 1.988.284 4.006.284 5.994 0 .156-.024.313.038.412.162.098.123.123.29.065.437-.058.147-.19.252-.346.276-1.036.15-2.081.225-3.128.223zM14 8.75c-1.047.002-2.092-.073-3.128-.223-.242-.036-.408-.262-.372-.503.036-.242.262-.408.503-.372 1.988.284 4.006.284 5.994 0 .241-.036.467.13.503.372.036.241-.13.467-.372.503-1.036.15-2.081.225-3.128.223z" transform="translate(-535 -780) translate(535 665) translate(0 115) translate(0 .26) translate(0 32) translate(40.06)"/>
                            </g>
                            <g>
                                <path fill="url(#0wot4hab9a)" d="M22.75 8.313c0 3.062-2.625 9.624-8.75 9.624s-8.75-6.562-8.75-9.625c0-3.062 7-7.874 8.75-7.874s8.75 4.812 8.75 7.875z" transform="translate(-535 -780) translate(535 665) translate(0 115) translate(0 .26) translate(0 32) translate(80.06)"/>
                                <path fill="#C7CDD8" d="M22.75 8.313c0 3.062-2.625 9.624-8.75 9.624s-8.75-6.562-8.75-9.625c0-.164.019-.329.057-.49.38 3.277 3.071 8.803 8.693 8.803s8.313-5.526 8.693-8.803c.038.161.057.326.057.49z" transform="translate(-535 -780) translate(535 665) translate(0 115) translate(0 .26) translate(0 32) translate(80.06)"/>
                                <path fill="#8288A1" d="M17.5 4.813h-.048c-.53-.062-1.041-.233-1.5-.504-.353-.245-.668-.54-.937-.875-.346-.424-.674-.809-1.015-.809-.341 0-.67.376-1.015.779-.27.334-.584.629-.936.875-.458.28-.969.463-1.5.534-.242.026-.46-.148-.486-.39-.027-.241.147-.459.389-.486.395-.051.776-.177 1.124-.371.28-.21.532-.456.748-.731.438-.503.937-1.085 1.676-1.085.722 0 1.22.573 1.658 1.08.217.276.468.521.748.731.348.194.73.32 1.125.372.242.009.432.212.424.455-.008.243-.212.433-.455.425z" transform="translate(-535 -780) translate(535 665) translate(0 115) translate(0 .26) translate(0 32) translate(80.06)"/>
                                <path fill="#C7CDD8" d="M24.5 17.063c-1.453 0-4.187-3.422-4.72-4.109-.108-.122-.138-.294-.08-.446.06-.151.197-.258.359-.277.162-.018.32.055.412.19 1.404 1.81 3.35 3.767 4.029 3.767.875 0 2.625-3.444 2.625-7.438 0-5.08-.779-7.875-2.188-7.875-1.408 0-3.408 3.5-4.375 5.718-.061.144-.195.244-.35.262-.156.019-.31-.047-.403-.173-.094-.125-.113-.29-.052-.435C20.052 5.61 22.532 0 24.938 0 26.998 0 28 2.861 28 8.75c0 4.038-1.798 8.313-3.5 8.313zM3.5 17.063c-1.702 0-3.5-4.275-3.5-8.313C0 2.861 1.002 0 3.063 0c2.406 0 4.886 5.609 5.162 6.247.095.223-.007.48-.23.576-.222.095-.48-.008-.575-.23C6.47 4.375 4.445.875 3.063.875 1.68.875.874 3.671.874 8.75c0 3.994 1.75 7.438 2.625 7.438.678 0 2.625-1.956 4.03-3.767.152-.174.413-.2.596-.058.183.14.224.4.095.591-.534.687-3.269 4.108-4.721 4.108z" transform="translate(-535 -780) translate(535 665) translate(0 115) translate(0 .26) translate(0 32) translate(80.06)"/>
                                <path fill="#C7CDD8" d="M14 11.375c-2.14.038-4.268-.312-6.282-1.033-.146-.057-.25-.188-.272-.343-.023-.155.04-.31.162-.407.123-.097.288-.121.433-.063 1.912.68 3.93 1.01 5.959.971 2.029.038 4.047-.29 5.959-.971.224-.09.48.02.569.245.089.224-.02.48-.245.569-2.015.72-4.144 1.07-6.283 1.032zM14 14c-1.047.002-2.092-.073-3.128-.223-.156-.024-.288-.129-.346-.276-.058-.147-.033-.314.065-.437.099-.124.256-.186.412-.162 1.988.284 4.006.284 5.994 0 .156-.024.313.038.412.162.098.123.123.29.065.437-.058.147-.19.252-.346.276-1.036.15-2.081.225-3.128.223zM14 8.75c-1.047.002-2.092-.073-3.128-.223-.242-.036-.408-.262-.372-.503.036-.242.262-.408.503-.372 1.988.284 4.006.284 5.994 0 .241-.036.467.13.503.372.036.241-.13.467-.372.503-1.036.15-2.081.225-3.128.223z" transform="translate(-535 -780) translate(535 665) translate(0 115) translate(0 .26) translate(0 32) translate(80.06)"/>
                            </g>
                            <g>
                                <path fill="url(#0wot4hab9a)" d="M22.75 8.313c0 3.062-2.625 9.624-8.75 9.624s-8.75-6.562-8.75-9.625c0-3.062 7-7.874 8.75-7.874s8.75 4.812 8.75 7.875z" transform="translate(-535 -780) translate(535 665) translate(0 115) translate(0 .26) translate(0 32) translate(120.06)"/>
                                <path fill="#C7CDD8" d="M22.75 8.313c0 3.062-2.625 9.624-8.75 9.624s-8.75-6.562-8.75-9.625c0-.164.019-.329.057-.49.38 3.277 3.071 8.803 8.693 8.803s8.313-5.526 8.693-8.803c.038.161.057.326.057.49z" transform="translate(-535 -780) translate(535 665) translate(0 115) translate(0 .26) translate(0 32) translate(120.06)"/>
                                <path fill="#8288A1" d="M17.5 4.813h-.048c-.53-.062-1.041-.233-1.5-.504-.353-.245-.668-.54-.937-.875-.346-.424-.674-.809-1.015-.809-.341 0-.67.376-1.015.779-.27.334-.584.629-.936.875-.458.28-.969.463-1.5.534-.242.026-.46-.148-.486-.39-.027-.241.147-.459.389-.486.395-.051.776-.177 1.124-.371.28-.21.532-.456.748-.731.438-.503.937-1.085 1.676-1.085.722 0 1.22.573 1.658 1.08.217.276.468.521.748.731.348.194.73.32 1.125.372.242.009.432.212.424.455-.008.243-.212.433-.455.425z" transform="translate(-535 -780) translate(535 665) translate(0 115) translate(0 .26) translate(0 32) translate(120.06)"/>
                                <path fill="#C7CDD8" d="M24.5 17.063c-1.453 0-4.187-3.422-4.72-4.109-.108-.122-.138-.294-.08-.446.06-.151.197-.258.359-.277.162-.018.32.055.412.19 1.404 1.81 3.35 3.767 4.029 3.767.875 0 2.625-3.444 2.625-7.438 0-5.08-.779-7.875-2.188-7.875-1.408 0-3.408 3.5-4.375 5.718-.061.144-.195.244-.35.262-.156.019-.31-.047-.403-.173-.094-.125-.113-.29-.052-.435C20.052 5.61 22.532 0 24.938 0 26.998 0 28 2.861 28 8.75c0 4.038-1.798 8.313-3.5 8.313zM3.5 17.063c-1.702 0-3.5-4.275-3.5-8.313C0 2.861 1.002 0 3.063 0c2.406 0 4.886 5.609 5.162 6.247.095.223-.007.48-.23.576-.222.095-.48-.008-.575-.23C6.47 4.375 4.445.875 3.063.875 1.68.875.874 3.671.874 8.75c0 3.994 1.75 7.438 2.625 7.438.678 0 2.625-1.956 4.03-3.767.152-.174.413-.2.596-.058.183.14.224.4.095.591-.534.687-3.269 4.108-4.721 4.108z" transform="translate(-535 -780) translate(535 665) translate(0 115) translate(0 .26) translate(0 32) translate(120.06)"/>
                                <path fill="#C7CDD8" d="M14 11.375c-2.14.038-4.268-.312-6.282-1.033-.146-.057-.25-.188-.272-.343-.023-.155.04-.31.162-.407.123-.097.288-.121.433-.063 1.912.68 3.93 1.01 5.959.971 2.029.038 4.047-.29 5.959-.971.224-.09.48.02.569.245.089.224-.02.48-.245.569-2.015.72-4.144 1.07-6.283 1.032zM14 14c-1.047.002-2.092-.073-3.128-.223-.156-.024-.288-.129-.346-.276-.058-.147-.033-.314.065-.437.099-.124.256-.186.412-.162 1.988.284 4.006.284 5.994 0 .156-.024.313.038.412.162.098.123.123.29.065.437-.058.147-.19.252-.346.276-1.036.15-2.081.225-3.128.223zM14 8.75c-1.047.002-2.092-.073-3.128-.223-.242-.036-.408-.262-.372-.503.036-.242.262-.408.503-.372 1.988.284 4.006.284 5.994 0 .241-.036.467.13.503.372.036.241-.13.467-.372.503-1.036.15-2.081.225-3.128.223z" transform="translate(-535 -780) translate(535 665) translate(0 115) translate(0 .26) translate(0 32) translate(120.06)"/>
                            </g>
                        </g>
                        <g>
                            <g>
                                <path fill="url(#0wot4hab9a)" d="M22.75 8.313c0 3.062-2.625 9.624-8.75 9.624s-8.75-6.562-8.75-9.625c0-3.062 7-7.874 8.75-7.874s8.75 4.812 8.75 7.875z" transform="translate(-535 -780) translate(535 665) translate(0 115) translate(0 .26) translate(0 64) translate(.06)"/>
                                <path fill="#C7CDD8" d="M22.75 8.313c0 3.062-2.625 9.624-8.75 9.624s-8.75-6.562-8.75-9.625c0-.164.019-.329.057-.49.38 3.277 3.071 8.803 8.693 8.803s8.313-5.526 8.693-8.803c.038.161.057.326.057.49z" transform="translate(-535 -780) translate(535 665) translate(0 115) translate(0 .26) translate(0 64) translate(.06)"/>
                                <path fill="#8288A1" d="M17.5 4.813h-.048c-.53-.062-1.041-.233-1.5-.504-.353-.245-.668-.54-.937-.875-.346-.424-.674-.809-1.015-.809-.341 0-.67.376-1.015.779-.27.334-.584.629-.936.875-.458.28-.969.463-1.5.534-.242.026-.46-.148-.486-.39-.027-.241.147-.459.389-.486.395-.051.776-.177 1.124-.371.28-.21.532-.456.748-.731.438-.503.937-1.085 1.676-1.085.722 0 1.22.573 1.658 1.08.217.276.468.521.748.731.348.194.73.32 1.125.372.242.009.432.212.424.455-.008.243-.212.433-.455.425z" transform="translate(-535 -780) translate(535 665) translate(0 115) translate(0 .26) translate(0 64) translate(.06)"/>
                                <path fill="#C7CDD8" d="M24.5 17.063c-1.453 0-4.187-3.422-4.72-4.109-.108-.122-.138-.294-.08-.446.06-.151.197-.258.359-.277.162-.018.32.055.412.19 1.404 1.81 3.35 3.767 4.029 3.767.875 0 2.625-3.444 2.625-7.438 0-5.08-.779-7.875-2.188-7.875-1.408 0-3.408 3.5-4.375 5.718-.061.144-.195.244-.35.262-.156.019-.31-.047-.403-.173-.094-.125-.113-.29-.052-.435C20.052 5.61 22.532 0 24.938 0 26.998 0 28 2.861 28 8.75c0 4.038-1.798 8.313-3.5 8.313zM3.5 17.063c-1.702 0-3.5-4.275-3.5-8.313C0 2.861 1.002 0 3.063 0c2.406 0 4.886 5.609 5.162 6.247.095.223-.007.48-.23.576-.222.095-.48-.008-.575-.23C6.47 4.375 4.445.875 3.063.875 1.68.875.874 3.671.874 8.75c0 3.994 1.75 7.438 2.625 7.438.678 0 2.625-1.956 4.03-3.767.152-.174.413-.2.596-.058.183.14.224.4.095.591-.534.687-3.269 4.108-4.721 4.108z" transform="translate(-535 -780) translate(535 665) translate(0 115) translate(0 .26) translate(0 64) translate(.06)"/>
                                <path fill="#C7CDD8" d="M14 11.375c-2.14.038-4.268-.312-6.282-1.033-.146-.057-.25-.188-.272-.343-.023-.155.04-.31.162-.407.123-.097.288-.121.433-.063 1.912.68 3.93 1.01 5.959.971 2.029.038 4.047-.29 5.959-.971.224-.09.48.02.569.245.089.224-.02.48-.245.569-2.015.72-4.144 1.07-6.283 1.032zM14 14c-1.047.002-2.092-.073-3.128-.223-.156-.024-.288-.129-.346-.276-.058-.147-.033-.314.065-.437.099-.124.256-.186.412-.162 1.988.284 4.006.284 5.994 0 .156-.024.313.038.412.162.098.123.123.29.065.437-.058.147-.19.252-.346.276-1.036.15-2.081.225-3.128.223zM14 8.75c-1.047.002-2.092-.073-3.128-.223-.242-.036-.408-.262-.372-.503.036-.242.262-.408.503-.372 1.988.284 4.006.284 5.994 0 .241-.036.467.13.503.372.036.241-.13.467-.372.503-1.036.15-2.081.225-3.128.223z" transform="translate(-535 -780) translate(535 665) translate(0 115) translate(0 .26) translate(0 64) translate(.06)"/>
                            </g>
                            <g>
                                <path fill="url(#0wot4hab9a)" d="M22.75 8.313c0 3.062-2.625 9.624-8.75 9.624s-8.75-6.562-8.75-9.625c0-3.062 7-7.874 8.75-7.874s8.75 4.812 8.75 7.875z" transform="translate(-535 -780) translate(535 665) translate(0 115) translate(0 .26) translate(0 64) translate(40.06)"/>
                                <path fill="#C7CDD8" d="M22.75 8.313c0 3.062-2.625 9.624-8.75 9.624s-8.75-6.562-8.75-9.625c0-.164.019-.329.057-.49.38 3.277 3.071 8.803 8.693 8.803s8.313-5.526 8.693-8.803c.038.161.057.326.057.49z" transform="translate(-535 -780) translate(535 665) translate(0 115) translate(0 .26) translate(0 64) translate(40.06)"/>
                                <path fill="#8288A1" d="M17.5 4.813h-.048c-.53-.062-1.041-.233-1.5-.504-.353-.245-.668-.54-.937-.875-.346-.424-.674-.809-1.015-.809-.341 0-.67.376-1.015.779-.27.334-.584.629-.936.875-.458.28-.969.463-1.5.534-.242.026-.46-.148-.486-.39-.027-.241.147-.459.389-.486.395-.051.776-.177 1.124-.371.28-.21.532-.456.748-.731.438-.503.937-1.085 1.676-1.085.722 0 1.22.573 1.658 1.08.217.276.468.521.748.731.348.194.73.32 1.125.372.242.009.432.212.424.455-.008.243-.212.433-.455.425z" transform="translate(-535 -780) translate(535 665) translate(0 115) translate(0 .26) translate(0 64) translate(40.06)"/>
                                <path fill="#C7CDD8" d="M24.5 17.063c-1.453 0-4.187-3.422-4.72-4.109-.108-.122-.138-.294-.08-.446.06-.151.197-.258.359-.277.162-.018.32.055.412.19 1.404 1.81 3.35 3.767 4.029 3.767.875 0 2.625-3.444 2.625-7.438 0-5.08-.779-7.875-2.188-7.875-1.408 0-3.408 3.5-4.375 5.718-.061.144-.195.244-.35.262-.156.019-.31-.047-.403-.173-.094-.125-.113-.29-.052-.435C20.052 5.61 22.532 0 24.938 0 26.998 0 28 2.861 28 8.75c0 4.038-1.798 8.313-3.5 8.313zM3.5 17.063c-1.702 0-3.5-4.275-3.5-8.313C0 2.861 1.002 0 3.063 0c2.406 0 4.886 5.609 5.162 6.247.095.223-.007.48-.23.576-.222.095-.48-.008-.575-.23C6.47 4.375 4.445.875 3.063.875 1.68.875.874 3.671.874 8.75c0 3.994 1.75 7.438 2.625 7.438.678 0 2.625-1.956 4.03-3.767.152-.174.413-.2.596-.058.183.14.224.4.095.591-.534.687-3.269 4.108-4.721 4.108z" transform="translate(-535 -780) translate(535 665) translate(0 115) translate(0 .26) translate(0 64) translate(40.06)"/>
                                <path fill="#C7CDD8" d="M14 11.375c-2.14.038-4.268-.312-6.282-1.033-.146-.057-.25-.188-.272-.343-.023-.155.04-.31.162-.407.123-.097.288-.121.433-.063 1.912.68 3.93 1.01 5.959.971 2.029.038 4.047-.29 5.959-.971.224-.09.48.02.569.245.089.224-.02.48-.245.569-2.015.72-4.144 1.07-6.283 1.032zM14 14c-1.047.002-2.092-.073-3.128-.223-.156-.024-.288-.129-.346-.276-.058-.147-.033-.314.065-.437.099-.124.256-.186.412-.162 1.988.284 4.006.284 5.994 0 .156-.024.313.038.412.162.098.123.123.29.065.437-.058.147-.19.252-.346.276-1.036.15-2.081.225-3.128.223zM14 8.75c-1.047.002-2.092-.073-3.128-.223-.242-.036-.408-.262-.372-.503.036-.242.262-.408.503-.372 1.988.284 4.006.284 5.994 0 .241-.036.467.13.503.372.036.241-.13.467-.372.503-1.036.15-2.081.225-3.128.223z" transform="translate(-535 -780) translate(535 665) translate(0 115) translate(0 .26) translate(0 64) translate(40.06)"/>
                            </g>
                            <g>
                                <path fill="url(#0wot4hab9a)" d="M22.75 8.313c0 3.062-2.625 9.624-8.75 9.624s-8.75-6.562-8.75-9.625c0-3.062 7-7.874 8.75-7.874s8.75 4.812 8.75 7.875z" transform="translate(-535 -780) translate(535 665) translate(0 115) translate(0 .26) translate(0 64) translate(80.06)"/>
                                <path fill="#C7CDD8" d="M22.75 8.313c0 3.062-2.625 9.624-8.75 9.624s-8.75-6.562-8.75-9.625c0-.164.019-.329.057-.49.38 3.277 3.071 8.803 8.693 8.803s8.313-5.526 8.693-8.803c.038.161.057.326.057.49z" transform="translate(-535 -780) translate(535 665) translate(0 115) translate(0 .26) translate(0 64) translate(80.06)"/>
                                <path fill="#8288A1" d="M17.5 4.813h-.048c-.53-.062-1.041-.233-1.5-.504-.353-.245-.668-.54-.937-.875-.346-.424-.674-.809-1.015-.809-.341 0-.67.376-1.015.779-.27.334-.584.629-.936.875-.458.28-.969.463-1.5.534-.242.026-.46-.148-.486-.39-.027-.241.147-.459.389-.486.395-.051.776-.177 1.124-.371.28-.21.532-.456.748-.731.438-.503.937-1.085 1.676-1.085.722 0 1.22.573 1.658 1.08.217.276.468.521.748.731.348.194.73.32 1.125.372.242.009.432.212.424.455-.008.243-.212.433-.455.425z" transform="translate(-535 -780) translate(535 665) translate(0 115) translate(0 .26) translate(0 64) translate(80.06)"/>
                                <path fill="#C7CDD8" d="M24.5 17.063c-1.453 0-4.187-3.422-4.72-4.109-.108-.122-.138-.294-.08-.446.06-.151.197-.258.359-.277.162-.018.32.055.412.19 1.404 1.81 3.35 3.767 4.029 3.767.875 0 2.625-3.444 2.625-7.438 0-5.08-.779-7.875-2.188-7.875-1.408 0-3.408 3.5-4.375 5.718-.061.144-.195.244-.35.262-.156.019-.31-.047-.403-.173-.094-.125-.113-.29-.052-.435C20.052 5.61 22.532 0 24.938 0 26.998 0 28 2.861 28 8.75c0 4.038-1.798 8.313-3.5 8.313zM3.5 17.063c-1.702 0-3.5-4.275-3.5-8.313C0 2.861 1.002 0 3.063 0c2.406 0 4.886 5.609 5.162 6.247.095.223-.007.48-.23.576-.222.095-.48-.008-.575-.23C6.47 4.375 4.445.875 3.063.875 1.68.875.874 3.671.874 8.75c0 3.994 1.75 7.438 2.625 7.438.678 0 2.625-1.956 4.03-3.767.152-.174.413-.2.596-.058.183.14.224.4.095.591-.534.687-3.269 4.108-4.721 4.108z" transform="translate(-535 -780) translate(535 665) translate(0 115) translate(0 .26) translate(0 64) translate(80.06)"/>
                                <path fill="#C7CDD8" d="M14 11.375c-2.14.038-4.268-.312-6.282-1.033-.146-.057-.25-.188-.272-.343-.023-.155.04-.31.162-.407.123-.097.288-.121.433-.063 1.912.68 3.93 1.01 5.959.971 2.029.038 4.047-.29 5.959-.971.224-.09.48.02.569.245.089.224-.02.48-.245.569-2.015.72-4.144 1.07-6.283 1.032zM14 14c-1.047.002-2.092-.073-3.128-.223-.156-.024-.288-.129-.346-.276-.058-.147-.033-.314.065-.437.099-.124.256-.186.412-.162 1.988.284 4.006.284 5.994 0 .156-.024.313.038.412.162.098.123.123.29.065.437-.058.147-.19.252-.346.276-1.036.15-2.081.225-3.128.223zM14 8.75c-1.047.002-2.092-.073-3.128-.223-.242-.036-.408-.262-.372-.503.036-.242.262-.408.503-.372 1.988.284 4.006.284 5.994 0 .241-.036.467.13.503.372.036.241-.13.467-.372.503-1.036.15-2.081.225-3.128.223z" transform="translate(-535 -780) translate(535 665) translate(0 115) translate(0 .26) translate(0 64) translate(80.06)"/>
                            </g>
                            <g>
                                <path fill="url(#0wot4hab9a)" d="M22.75 8.313c0 3.062-2.625 9.624-8.75 9.624s-8.75-6.562-8.75-9.625c0-3.062 7-7.874 8.75-7.874s8.75 4.812 8.75 7.875z" transform="translate(-535 -780) translate(535 665) translate(0 115) translate(0 .26) translate(0 64) translate(120.06)"/>
                                <path fill="#C7CDD8" d="M22.75 8.313c0 3.062-2.625 9.624-8.75 9.624s-8.75-6.562-8.75-9.625c0-.164.019-.329.057-.49.38 3.277 3.071 8.803 8.693 8.803s8.313-5.526 8.693-8.803c.038.161.057.326.057.49z" transform="translate(-535 -780) translate(535 665) translate(0 115) translate(0 .26) translate(0 64) translate(120.06)"/>
                                <path fill="#8288A1" d="M17.5 4.813h-.048c-.53-.062-1.041-.233-1.5-.504-.353-.245-.668-.54-.937-.875-.346-.424-.674-.809-1.015-.809-.341 0-.67.376-1.015.779-.27.334-.584.629-.936.875-.458.28-.969.463-1.5.534-.242.026-.46-.148-.486-.39-.027-.241.147-.459.389-.486.395-.051.776-.177 1.124-.371.28-.21.532-.456.748-.731.438-.503.937-1.085 1.676-1.085.722 0 1.22.573 1.658 1.08.217.276.468.521.748.731.348.194.73.32 1.125.372.242.009.432.212.424.455-.008.243-.212.433-.455.425z" transform="translate(-535 -780) translate(535 665) translate(0 115) translate(0 .26) translate(0 64) translate(120.06)"/>
                                <path fill="#C7CDD8" d="M24.5 17.063c-1.453 0-4.187-3.422-4.72-4.109-.108-.122-.138-.294-.08-.446.06-.151.197-.258.359-.277.162-.018.32.055.412.19 1.404 1.81 3.35 3.767 4.029 3.767.875 0 2.625-3.444 2.625-7.438 0-5.08-.779-7.875-2.188-7.875-1.408 0-3.408 3.5-4.375 5.718-.061.144-.195.244-.35.262-.156.019-.31-.047-.403-.173-.094-.125-.113-.29-.052-.435C20.052 5.61 22.532 0 24.938 0 26.998 0 28 2.861 28 8.75c0 4.038-1.798 8.313-3.5 8.313zM3.5 17.063c-1.702 0-3.5-4.275-3.5-8.313C0 2.861 1.002 0 3.063 0c2.406 0 4.886 5.609 5.162 6.247.095.223-.007.48-.23.576-.222.095-.48-.008-.575-.23C6.47 4.375 4.445.875 3.063.875 1.68.875.874 3.671.874 8.75c0 3.994 1.75 7.438 2.625 7.438.678 0 2.625-1.956 4.03-3.767.152-.174.413-.2.596-.058.183.14.224.4.095.591-.534.687-3.269 4.108-4.721 4.108z" transform="translate(-535 -780) translate(535 665) translate(0 115) translate(0 .26) translate(0 64) translate(120.06)"/>
                                <path fill="#C7CDD8" d="M14 11.375c-2.14.038-4.268-.312-6.282-1.033-.146-.057-.25-.188-.272-.343-.023-.155.04-.31.162-.407.123-.097.288-.121.433-.063 1.912.68 3.93 1.01 5.959.971 2.029.038 4.047-.29 5.959-.971.224-.09.48.02.569.245.089.224-.02.48-.245.569-2.015.72-4.144 1.07-6.283 1.032zM14 14c-1.047.002-2.092-.073-3.128-.223-.156-.024-.288-.129-.346-.276-.058-.147-.033-.314.065-.437.099-.124.256-.186.412-.162 1.988.284 4.006.284 5.994 0 .156-.024.313.038.412.162.098.123.123.29.065.437-.058.147-.19.252-.346.276-1.036.15-2.081.225-3.128.223zM14 8.75c-1.047.002-2.092-.073-3.128-.223-.242-.036-.408-.262-.372-.503.036-.242.262-.408.503-.372 1.988.284 4.006.284 5.994 0 .241-.036.467.13.503.372.036.241-.13.467-.372.503-1.036.15-2.081.225-3.128.223z" transform="translate(-535 -780) translate(535 665) translate(0 115) translate(0 .26) translate(0 64) translate(120.06)"/>
                            </g>
                        </g>
                    </g>
                </g>
            </g>
        </g>
    </g>
</svg>
